<svg width="48" height="48" viewBox="0 0 48 48" fill="none" xmlns="http://www.w3.org/2000/svg">
<path id="Exclude" fill-rule="evenodd" clip-rule="evenodd" d="M24 0C10.7452 0 0 10.7452 0 24C0 37.2548 10.7452 48 24 48C37.2548 48 48 37.2548 48 24C48 10.7452 37.2548 0 24 0ZM15.9219 22.0781L23.4219 29.5781C23.9844 30.1875 24.9688 30.1875 25.5312 29.5781L33.0312 22.0781C33.6406 21.5156 33.6406 20.5312 33.0312 19.9688C32.4688 19.3594 31.4844 19.3594 30.9219 19.9688L24.5 26.3906L18.0312 19.9688C17.4688 19.3594 16.4844 19.3594 15.9219 19.9688C15.3125 20.5312 15.3125 21.5156 15.9219 22.0781Z" fill="white"/>
</svg>
