<svg width="43" height="27" viewBox="0 0 43 27" fill="none" xmlns="http://www.w3.org/2000/svg">
<g id="Logo">
<g id="lunar">
<path d="M7.032 4V10.996C7.032 11.188 7.032 11.392 7.044 11.596C7.068 12.004 7.26 12.136 7.824 12.076V12.82C7.596 12.856 7.332 12.868 7.092 12.868C6.492 12.868 6.048 12.676 6.012 11.872C6 11.656 6 11.38 6 11.032V4H7.032Z" fill="#2E9BFF"/>
<path d="M14.2928 6.46V12.82H13.2608V11.74L12.8648 12.484C12.3248 12.88 11.8568 12.988 11.2088 12.988C9.88884 12.988 9.12084 12.244 8.97684 11.368C8.92884 11.044 8.91684 10.792 8.91684 10.276V6.46H9.94884V10.084C9.94884 10.288 9.96084 10.636 9.99684 10.96C10.0928 11.68 10.6088 12.172 11.4728 12.172C12.4688 12.172 13.2608 11.428 13.2608 9.256V6.46H14.2928Z" fill="#2E9BFF"/>
<path d="M21.4664 8.152C21.4904 8.476 21.4904 8.728 21.4904 9.244V12.82H20.4584V9.316C20.4584 8.992 20.4584 8.728 20.4344 8.404C20.3744 7.66 19.9664 7.108 18.9824 7.108C17.9864 7.108 17.1464 7.852 17.1464 10.024V12.82H16.1144V6.46H17.1464V7.552L17.5424 6.82C18.0824 6.4 18.5504 6.292 19.1984 6.292C20.5904 6.292 21.3704 7.036 21.4664 8.152Z" fill="#2E9BFF"/>
<path d="M26.8757 12.82L26.7677 11.908L26.4197 12.592C25.9877 12.892 25.4357 12.988 24.8237 12.988C23.6717 12.988 22.7717 12.352 22.7717 11.176C22.7717 9.736 23.8517 8.992 26.3477 8.992H26.7557V8.824C26.7557 8.548 26.7557 8.296 26.7317 8.056C26.6837 7.468 26.3477 7.084 25.4957 7.084C24.6317 7.084 24.1997 7.552 24.1277 8.428H23.0477C23.1437 7.072 24.0917 6.292 25.4957 6.292C27.0077 6.292 27.6437 6.928 27.7517 7.972C27.7757 8.224 27.7877 8.536 27.7877 8.812V11.2C27.7877 11.68 27.8117 12.112 27.9077 12.82H26.8757ZM25.1717 12.196C26.1317 12.196 26.7557 11.56 26.7557 10.408V9.76C25.0037 9.628 23.8997 10 23.8997 11.092C23.8997 11.86 24.3917 12.196 25.1717 12.196Z" fill="#2E9BFF"/>
<path d="M32.0987 6.316C32.2667 6.316 32.4107 6.34 32.5307 6.4V7.18C31.4507 7.108 30.6347 7.744 30.6347 9.196V12.82H29.6027V6.46H30.6347V7.456L31.2107 6.604C31.4747 6.424 31.7987 6.316 32.0987 6.316Z" fill="#2E9BFF"/>
</g>
<g id="packs">
<path d="M9.192 13.988C11.052 13.988 12.084 15.38 12.084 17.24C12.084 19.592 10.62 20.684 8.976 20.684C8.448 20.684 7.776 20.528 7.452 20.264L7.032 19.64V22.868H6V14.156H7.032V15.176L7.512 14.492C7.872 14.192 8.544 13.988 9.192 13.988ZM8.976 19.892C10.092 19.892 10.956 19.028 10.956 17.36C10.956 15.92 10.308 14.78 9.036 14.78C7.98 14.78 7.032 15.452 7.032 17.276V17.624C7.032 19.268 8.064 19.892 8.976 19.892Z" fill="white"/>
<path d="M16.9839 20.516L16.8759 19.604L16.5279 20.288C16.0959 20.588 15.5439 20.684 14.9319 20.684C13.7799 20.684 12.8799 20.048 12.8799 18.872C12.8799 17.432 13.9599 16.688 16.4559 16.688H16.8639V16.52C16.8639 16.244 16.8639 15.992 16.8399 15.752C16.7919 15.164 16.4559 14.78 15.6039 14.78C14.7399 14.78 14.3079 15.248 14.2359 16.124H13.1559C13.2519 14.768 14.1999 13.988 15.6039 13.988C17.1159 13.988 17.7519 14.624 17.8599 15.668C17.8839 15.92 17.8959 16.232 17.8959 16.508V18.896C17.8959 19.376 17.9199 19.808 18.0159 20.516H16.9839ZM15.2799 19.892C16.2399 19.892 16.8639 19.256 16.8639 18.104V17.456C15.1119 17.324 14.0079 17.696 14.0079 18.788C14.0079 19.556 14.4999 19.892 15.2799 19.892Z" fill="white"/>
<path d="M22.1709 13.988C23.6949 13.988 24.6669 14.9 24.8589 16.292H23.7789C23.5509 15.272 22.9989 14.78 22.1469 14.78C21.1509 14.78 20.3109 15.56 20.3109 17.276C20.3109 19.124 21.1269 19.892 22.0749 19.892C22.9149 19.892 23.5029 19.412 23.7189 18.488H24.7989C24.4869 19.964 23.4309 20.684 22.0149 20.684C20.4069 20.684 19.1829 19.676 19.1829 17.348C19.1829 15.2 20.5749 13.988 22.1709 13.988Z" fill="white"/>
<path d="M30.0105 20.516L27.6945 17.828L27.0945 18.488V20.516H26.0625V14H27.0945V17.36L30.0585 14.156H31.3785L28.4145 17.156L31.4145 20.516H30.0105Z" fill="white"/>
<path d="M34.18 13.988C35.608 13.988 36.388 14.804 36.52 15.968H35.44C35.296 15.224 34.84 14.78 34.096 14.78C33.376 14.78 33.04 15.176 33.04 15.728C33.04 16.364 33.568 16.616 34.432 16.844C35.896 17.228 36.592 17.804 36.592 18.884C36.592 20.084 35.572 20.684 34.228 20.684C32.92 20.684 31.924 20.084 31.732 18.644H32.812C32.98 19.568 33.568 19.892 34.3 19.892C34.984 19.892 35.536 19.58 35.536 18.968C35.536 18.356 35.104 18.032 34.036 17.744C32.896 17.432 31.984 16.964 31.984 15.848C31.984 14.684 32.872 13.988 34.18 13.988Z" fill="white"/>
</g>
</g>
</svg>
